<svg xmlns="http://www.w3.org/2000/svg" xmlns:v="https://svgstorm.com"
viewBox = "0 0 500 500"
width="500"
height="500">
<g fill="None" fill-opacity="0.0" stroke="#000000" stroke-opacity="0.00" stroke-width="0.3"><path d="
M 0.00 500.00 
L 500.00 500.00
L 500.00 0.00
L 0.00 0.00
L 0.00 500.00
M 274.00 50.00 
C 376.39 59.91 458.96 157.22 450.00 261.00 C 441.04 364.78 342.78 448.24 238.33 438.67 C 133.88 429.10 53.08 331.99 61.98 227.98 C 70.88 123.96 168.06 39.75 274.00 50.00 Z"/>
</g>
<g fill="None" fill-opacity="0.0" stroke="#FFFFFF" stroke-opacity="0.82" stroke-width="0.3"><path d="
M 274.00 50.00 
C 168.06 39.75 70.88 123.96 61.98 227.98 C 53.08 331.99 133.88 429.10 238.33 438.67 C 342.78 448.24 441.04 364.78 450.00 261.00 C 458.96 157.22 376.39 59.91 274.00 50.00
M 270.00 55.00 
C 369.46 64.63 451.86 155.22 445.00 257.00 C 438.14 358.78 343.70 440.46 242.33 433.67 C 140.96 426.88 59.95 331.78 66.78 231.78 C 73.61 131.78 167.73 45.10 270.00 55.00 Z"/>
</g>
<g fill="None" fill-opacity="0.0" stroke="#000000" stroke-opacity="0.00" stroke-width="0.3"><path d="
M 270.00 55.00 
C 167.73 45.10 73.61 131.78 66.78 231.78 C 59.95 331.78 140.96 426.88 242.33 433.67 C 343.70 440.46 438.14 358.78 445.00 257.00 C 451.86 155.22 369.46 64.63 270.00 55.00
M 288.00 89.00 
C 273.55 137.82 257.63 186.21 243.00 235.00
C 235.33 235.00 227.67 235.00 220.00 235.00
C 234.77 186.28 250.43 137.81 265.00 89.00
C 272.67 89.00 280.33 89.00 288.00 89.00
M 211.00 118.00 
C 211.00 125.67 211.00 133.33 211.00 141.00
C 194.99 145.45 179.84 152.86 164.00 158.00
C 178.85 165.18 195.17 170.79 211.00 176.00
C 211.00 183.67 211.00 191.33 211.00 199.00
C 199.38 194.87 189.87 189.76 177.98 186.02 C 166.08 182.29 158.14 175.65 145.31 172.69 C 132.47 169.74 131.91 147.99 144.68 144.68 C 157.44 141.37 165.28 135.12 177.23 131.23 C 189.18 127.34 199.32 122.31 211.00 118.00
M 300.00 199.00 
C 300.00 191.33 300.00 183.67 300.00 176.00
C 315.92 171.28 331.21 164.30 347.00 159.00
C 332.15 151.82 315.83 146.21 300.00 141.00
C 300.00 133.33 300.00 125.67 300.00 118.00
C 311.62 122.13 321.13 127.24 333.02 130.98 C 344.92 134.71 352.86 141.35 365.69 144.31 C 378.53 147.26 379.09 169.01 366.32 172.32 C 353.56 175.63 345.72 181.88 333.77 185.77 C 321.82 189.66 311.68 194.69 300.00 199.00
M 201.00 304.00 
C 202.11 288.81 204.08 273.51 202.00 258.00
C 209.25 256.69 228.64 255.93 226.00 268.00 C 223.35 280.07 230.19 284.97 227.07 297.07 C 223.96 309.17 209.32 302.04 201.00 304.00
M 280.00 305.00 
C 275.15 302.85 269.27 304.54 264.00 304.00
C 266.76 289.01 266.98 272.50 264.00 258.00
C 271.21 258.90 277.66 257.01 284.08 257.07 C 290.50 257.12 294.07 266.81 293.00 272.00 C 291.93 277.19 294.37 287.79 285.77 288.77 C 277.17 289.75 278.98 297.11 280.00 305.00
M 253.00 258.00 
C 255.01 273.67 258.36 289.00 263.00 304.00
C 256.46 303.79 245.46 308.20 248.00 297.00
C 242.79 295.37 240.09 300.52 241.00 305.00
C 237.00 305.00 233.00 305.00 229.00 305.00
C 230.40 288.93 237.94 274.46 238.00 258.00
C 243.00 258.00 248.00 258.00 253.00 258.00
M 308.00 259.00 
C 306.30 273.87 304.62 289.60 309.00 304.00
C 304.14 305.27 298.85 302.54 294.00 305.00
C 296.44 290.19 297.83 272.70 294.00 258.00
C 298.66 258.18 302.84 259.11 308.00 259.00
M 167.00 384.00 
C 168.11 368.81 170.08 353.51 168.00 338.00
C 175.25 336.69 194.64 335.93 192.00 348.00 C 189.35 360.07 196.19 364.97 193.07 377.07 C 189.96 389.17 175.32 382.04 167.00 384.00
M 236.00 344.00 
C 235.70 348.37 230.75 352.49 227.00 354.00
C 225.70 352.25 226.26 348.56 223.00 349.00
C 226.11 358.50 244.55 368.66 233.23 381.23 C 221.91 393.80 204.34 376.07 212.00 363.00
C 216.00 364.78 225.34 366.00 222.00 372.00
C 230.21 371.63 221.31 363.63 216.25 359.75 C 211.19 355.87 209.86 344.22 216.75 339.75 C 223.64 335.28 231.30 338.42 236.00 344.00
M 343.00 346.00 
C 340.41 348.71 337.35 351.48 334.00 354.00
C 332.12 352.93 332.43 349.62 330.00 349.00
C 330.65 356.82 339.59 359.30 341.98 368.02 C 344.37 376.75 337.33 387.36 327.00 385.00 C 316.67 382.64 315.31 370.81 319.00 363.00
C 323.36 365.41 332.01 365.96 329.00 373.00
C 336.88 364.65 314.04 359.56 318.33 347.33 C 322.62 335.10 336.81 334.62 343.00 346.00
M 210.00 339.00 
C 206.16 354.07 207.50 368.99 210.00 384.00
C 205.26 385.69 199.83 382.29 195.00 385.00
C 198.71 369.42 198.17 354.35 196.00 338.00
C 200.84 337.61 205.05 339.74 210.00 339.00
M 250.00 367.00 
C 250.54 366.72 251.35 365.92 252.00 366.00
C 254.25 360.41 251.50 354.43 252.00 349.00
C 256.33 349.00 260.67 349.00 265.00 349.00
C 265.65 354.83 263.68 361.99 266.00 367.00
C 267.52 358.48 269.44 347.36 267.00 338.00
C 272.00 338.00 277.00 338.00 282.00 338.00
C 277.92 353.13 277.17 369.14 272.00 384.00
C 267.34 383.02 257.09 387.17 259.00 379.00
C 258.90 384.52 244.28 387.61 243.03 380.97 C 241.77 374.33 241.13 366.93 240.00 360.00 C 238.88 353.06 237.81 345.13 237.00 338.00
C 241.67 338.00 246.33 338.00 251.00 338.00
C 248.70 347.69 250.06 356.90 250.00 367.00
M 317.00 384.00 
C 311.73 383.28 307.24 385.56 302.00 385.00
C 305.17 375.07 291.86 375.03 295.00 385.00
C 291.00 385.00 287.00 385.00 283.00 385.00
C 283.99 368.83 291.82 354.42 292.00 338.00
C 300.09 336.40 307.25 337.77 307.33 345.67 C 307.41 353.57 311.92 357.62 311.98 365.02 C 312.03 372.43 315.25 377.22 317.00 384.00 Z"/>
</g>
<g fill="None" fill-opacity="0.0" stroke="#FFFFFF" stroke-opacity="0.95" stroke-width="0.3"><path d="
M 288.00 89.00 
C 280.33 89.00 272.67 89.00 265.00 89.00
C 250.43 137.81 234.77 186.28 220.00 235.00
C 227.67 235.00 235.33 235.00 243.00 235.00
C 257.63 186.21 273.55 137.82 288.00 89.00 Z"/>
</g>
<g fill="None" fill-opacity="0.0" stroke="#FFFFFF" stroke-opacity="0.95" stroke-width="0.3"><path d="
M 211.00 118.00 
C 199.32 122.31 189.18 127.34 177.23 131.23 C 165.28 135.12 157.44 141.37 144.68 144.68 C 131.91 147.99 132.47 169.74 145.31 172.69 C 158.14 175.65 166.08 182.29 177.98 186.02 C 189.87 189.76 199.38 194.87 211.00 199.00
C 211.00 191.33 211.00 183.67 211.00 176.00
C 195.17 170.79 178.85 165.18 164.00 158.00
C 179.84 152.86 194.99 145.45 211.00 141.00
C 211.00 133.33 211.00 125.67 211.00 118.00 Z"/>
</g>
<g fill="None" fill-opacity="0.0" stroke="#FFFFFF" stroke-opacity="0.95" stroke-width="0.3"><path d="
M 300.00 199.00 
C 311.68 194.69 321.82 189.66 333.77 185.77 C 345.72 181.88 353.56 175.63 366.32 172.32 C 379.09 169.01 378.53 147.26 365.69 144.31 C 352.86 141.35 344.92 134.71 333.02 130.98 C 321.13 127.24 311.62 122.13 300.00 118.00
C 300.00 125.67 300.00 133.33 300.00 141.00
C 315.83 146.21 332.15 151.82 347.00 159.00
C 331.21 164.30 315.92 171.28 300.00 176.00
C 300.00 183.67 300.00 191.33 300.00 199.00 Z"/>
</g>
<g fill="None" fill-opacity="0.0" stroke="#FFFFFF" stroke-opacity="0.87" stroke-width="0.3"><path d="
M 201.00 304.00 
C 209.32 302.04 223.96 309.17 227.07 297.07 C 230.19 284.97 223.35 280.07 226.00 268.00 C 228.64 255.93 209.25 256.69 202.00 258.00
C 204.08 273.51 202.11 288.81 201.00 304.00
M 213.00 274.00 
C 207.59 264.60 221.22 267.73 213.00 274.00
M 217.00 280.00 
C 214.11 282.88 212.78 279.59 211.00 279.00
C 213.89 276.12 215.22 279.41 217.00 280.00
M 213.00 294.00 
C 207.74 284.59 221.08 287.76 213.00 294.00 Z"/>
</g>
<g fill="None" fill-opacity="0.0" stroke="#FFFFFF" stroke-opacity="0.84" stroke-width="0.3"><path d="
M 280.00 305.00 
C 278.98 297.11 277.17 289.75 285.77 288.77 C 294.37 287.79 291.93 277.19 293.00 272.00 C 294.07 266.81 290.50 257.12 284.08 257.07 C 277.66 257.01 271.21 258.90 264.00 258.00
C 266.98 272.50 266.76 289.01 264.00 304.00
C 269.27 304.54 275.15 302.85 280.00 305.00
M 277.00 279.00 
C 277.00 275.00 277.00 271.00 277.00 267.00
C 284.23 266.11 283.67 279.36 277.00 279.00
M 280.00 285.00 
C 275.22 287.54 278.80 283.63 274.00 283.00
C 276.60 282.66 278.65 282.95 280.00 285.00 Z"/>
</g>
<g fill="None" fill-opacity="0.0" stroke="#FFFFFF" stroke-opacity="0.89" stroke-width="0.3"><path d="
M 253.00 258.00 
C 248.00 258.00 243.00 258.00 238.00 258.00
C 237.94 274.46 230.40 288.93 229.00 305.00
C 233.00 305.00 237.00 305.00 241.00 305.00
C 240.09 300.52 242.79 295.37 248.00 297.00
C 245.46 308.20 256.46 303.79 263.00 304.00
C 258.36 289.00 255.01 273.67 253.00 258.00
M 243.00 287.00 
C 244.25 283.84 244.76 280.45 245.00 277.00
C 245.66 279.88 249.54 288.49 243.00 287.00 Z"/>
</g>
<g fill="None" fill-opacity="0.0" stroke="#FFFFFF" stroke-opacity="0.85" stroke-width="0.3"><path d="
M 308.00 259.00 
C 302.84 259.11 298.66 258.18 294.00 258.00
C 297.83 272.70 296.44 290.19 294.00 305.00
C 298.85 302.54 304.14 305.27 309.00 304.00
C 304.62 289.60 306.30 273.87 308.00 259.00 Z"/>
</g>
<g fill="None" fill-opacity="0.0" stroke="#000000" stroke-opacity="0.00" stroke-width="0.3"><path d="
M 213.00 274.00 
C 221.22 267.73 207.59 264.60 213.00 274.00 Z"/>
</g>
<g fill="None" fill-opacity="0.0" stroke="#000000" stroke-opacity="0.00" stroke-width="0.3"><path d="
M 277.00 279.00 
C 283.67 279.36 284.23 266.11 277.00 267.00
C 277.00 271.00 277.00 275.00 277.00 279.00 Z"/>
</g>
<g fill="None" fill-opacity="0.0" stroke="#000000" stroke-opacity="0.00" stroke-width="0.3"><path d="
M 243.00 287.00 
C 249.54 288.49 245.66 279.88 245.00 277.00
C 244.76 280.45 244.25 283.84 243.00 287.00 Z"/>
</g>
<g fill="None" fill-opacity="0.0" stroke="#FFFFFF" stroke-opacity="0.69" stroke-width="0.3"><path d="
M 217.00 280.00 
C 215.22 279.41 213.89 276.12 211.00 279.00
C 212.78 279.59 214.11 282.88 217.00 280.00 Z"/>
</g>
<g fill="None" fill-opacity="0.0" stroke="#FFFFFF" stroke-opacity="0.60" stroke-width="0.3"><path d="
M 280.00 285.00 
C 278.65 282.95 276.60 282.66 274.00 283.00
C 278.80 283.63 275.22 287.54 280.00 285.00 Z"/>
</g>
<g fill="None" fill-opacity="0.0" stroke="#000000" stroke-opacity="0.00" stroke-width="0.3"><path d="
M 213.00 294.00 
C 221.08 287.76 207.74 284.59 213.00 294.00 Z"/>
</g>
<g fill="None" fill-opacity="0.0" stroke="#FFFFFF" stroke-opacity="0.87" stroke-width="0.3"><path d="
M 167.00 384.00 
C 175.32 382.04 189.96 389.17 193.07 377.07 C 196.19 364.97 189.35 360.07 192.00 348.00 C 194.64 335.93 175.25 336.69 168.00 338.00
C 170.08 353.51 168.11 368.81 167.00 384.00
M 179.00 354.00 
C 173.59 344.60 187.22 347.74 179.00 354.00
M 183.00 360.00 
C 180.11 362.88 178.78 359.59 177.00 359.00
C 179.89 356.12 181.22 359.41 183.00 360.00
M 179.00 374.00 
C 173.74 364.59 187.08 367.76 179.00 374.00 Z"/>
</g>
<g fill="None" fill-opacity="0.0" stroke="#FFFFFF" stroke-opacity="0.84" stroke-width="0.3"><path d="
M 236.00 344.00 
C 231.30 338.42 223.64 335.28 216.75 339.75 C 209.86 344.22 211.19 355.87 216.25 359.75 C 221.31 363.63 230.21 371.63 222.00 372.00
C 225.34 366.00 216.00 364.78 212.00 363.00
C 204.34 376.07 221.91 393.80 233.23 381.23 C 244.55 368.66 226.11 358.50 223.00 349.00
C 226.26 348.56 225.70 352.25 227.00 354.00
C 230.75 352.49 235.70 348.37 236.00 344.00 Z"/>
</g>
<g fill="None" fill-opacity="0.0" stroke="#FFFFFF" stroke-opacity="0.83" stroke-width="0.3"><path d="
M 343.00 346.00 
C 336.81 334.62 322.62 335.10 318.33 347.33 C 314.04 359.56 336.88 364.65 329.00 373.00
C 332.01 365.96 323.36 365.41 319.00 363.00
C 315.31 370.81 316.67 382.64 327.00 385.00 C 337.33 387.36 344.37 376.75 341.98 368.02 C 339.59 359.30 330.65 356.82 330.00 349.00
C 332.43 349.62 332.12 352.93 334.00 354.00
C 337.35 351.48 340.41 348.71 343.00 346.00 Z"/>
</g>
<g fill="None" fill-opacity="0.0" stroke="#FFFFFF" stroke-opacity="0.84" stroke-width="0.3"><path d="
M 210.00 339.00 
C 205.05 339.74 200.84 337.61 196.00 338.00
C 198.17 354.35 198.71 369.42 195.00 385.00
C 199.83 382.29 205.26 385.69 210.00 384.00
C 207.50 368.99 206.16 354.07 210.00 339.00 Z"/>
</g>
<g fill="None" fill-opacity="0.0" stroke="#FFFFFF" stroke-opacity="0.79" stroke-width="0.3"><path d="
M 252.00 366.00 
C 252.92 366.12 254.04 369.03 256.00 367.00
C 255.25 370.72 252.03 369.02 249.00 370.00
C 251.40 368.31 246.07 367.14 250.00 367.00
C 250.06 356.90 248.70 347.69 251.00 338.00
C 246.33 338.00 241.67 338.00 237.00 338.00
C 237.81 345.13 238.88 353.06 240.00 360.00 C 241.13 366.93 241.77 374.33 243.03 380.97 C 244.28 387.61 258.90 384.52 259.00 379.00
C 257.09 387.17 267.34 383.02 272.00 384.00
C 277.17 369.14 277.92 353.13 282.00 338.00
C 277.00 338.00 272.00 338.00 267.00 338.00
C 269.44 347.36 267.52 358.48 266.00 367.00
C 263.68 361.99 265.65 354.83 265.00 349.00
C 260.67 349.00 256.33 349.00 252.00 349.00
C 251.50 354.43 254.25 360.41 252.00 366.00 Z"/>
</g>
<g fill="None" fill-opacity="0.0" stroke="#FFFFFF" stroke-opacity="0.89" stroke-width="0.3"><path d="
M 317.00 384.00 
C 315.25 377.22 312.03 372.43 311.98 365.02 C 311.92 357.62 307.41 353.57 307.33 345.67 C 307.25 337.77 300.09 336.40 292.00 338.00
C 291.82 354.42 283.99 368.83 283.00 385.00
C 287.00 385.00 291.00 385.00 295.00 385.00
C 291.86 375.03 305.17 375.07 302.00 385.00
C 307.24 385.56 311.73 383.28 317.00 384.00
M 301.00 367.00 
C 294.13 368.35 299.41 360.61 299.00 357.00
C 301.45 359.45 298.63 364.20 301.00 367.00 Z"/>
</g>
<g fill="None" fill-opacity="0.0" stroke="#000000" stroke-opacity="0.00" stroke-width="0.3"><path d="
M 179.00 354.00 
C 187.22 347.74 173.59 344.60 179.00 354.00 Z"/>
</g>
<g fill="None" fill-opacity="0.0" stroke="#000000" stroke-opacity="0.00" stroke-width="0.3"><path d="
M 301.00 367.00 
C 298.63 364.20 301.45 359.45 299.00 357.00
C 299.41 360.61 294.13 368.35 301.00 367.00 Z"/>
</g>
<g fill="None" fill-opacity="0.0" stroke="#FFFFFF" stroke-opacity="0.69" stroke-width="0.3"><path d="
M 183.00 360.00 
C 181.22 359.41 179.89 356.12 177.00 359.00
C 178.78 359.59 180.11 362.88 183.00 360.00 Z"/>
</g>
<g fill="None" fill-opacity="0.0" stroke="#FFFFFF" stroke-opacity="0.48" stroke-width="0.3"><path d="
M 250.00 367.00 
C 246.07 367.14 251.40 368.31 249.00 370.00
C 252.03 369.02 255.25 370.72 256.00 367.00
C 254.04 369.03 252.92 366.12 252.00 366.00
C 251.35 365.92 250.54 366.72 250.00 367.00 Z"/>
</g>
<g fill="None" fill-opacity="0.0" stroke="#000000" stroke-opacity="0.00" stroke-width="0.3"><path d="
M 179.00 374.00 
C 187.08 367.76 173.74 364.59 179.00 374.00 Z"/>
</g>
<g fill="#000000" fill-opacity="0.00" stroke="None">
<path d="
M 0.00 500.00 
L 500.00 500.00
L 500.00 0.00
L 0.00 0.00
L 0.00 500.00
M 274.00 50.00 
C 376.39 59.91 458.96 157.22 450.00 261.00 C 441.04 364.78 342.78 448.24 238.33 438.67 C 133.88 429.10 53.08 331.99 61.98 227.98 C 70.88 123.96 168.06 39.75 274.00 50.00 Z"/>
</g>
<g fill="#FFFFFF" fill-opacity="0.82" stroke="None">
<path d="
M 274.00 50.00 
C 168.06 39.75 70.88 123.96 61.98 227.98 C 53.08 331.99 133.88 429.10 238.33 438.67 C 342.78 448.24 441.04 364.78 450.00 261.00 C 458.96 157.22 376.39 59.91 274.00 50.00
M 270.00 55.00 
C 369.46 64.63 451.86 155.22 445.00 257.00 C 438.14 358.78 343.70 440.46 242.33 433.67 C 140.96 426.88 59.95 331.78 66.78 231.78 C 73.61 131.78 167.73 45.10 270.00 55.00 Z"/>
</g>
<g fill="#000000" fill-opacity="0.00" stroke="None">
<path d="
M 270.00 55.00 
C 167.73 45.10 73.61 131.78 66.78 231.78 C 59.95 331.78 140.96 426.88 242.33 433.67 C 343.70 440.46 438.14 358.78 445.00 257.00 C 451.86 155.22 369.46 64.63 270.00 55.00
M 288.00 89.00 
C 273.55 137.82 257.63 186.21 243.00 235.00
C 235.33 235.00 227.67 235.00 220.00 235.00
C 234.77 186.28 250.43 137.81 265.00 89.00
C 272.67 89.00 280.33 89.00 288.00 89.00
M 211.00 118.00 
C 211.00 125.67 211.00 133.33 211.00 141.00
C 194.99 145.45 179.84 152.86 164.00 158.00
C 178.85 165.18 195.17 170.79 211.00 176.00
C 211.00 183.67 211.00 191.33 211.00 199.00
C 199.38 194.87 189.87 189.76 177.98 186.02 C 166.08 182.29 158.14 175.65 145.31 172.69 C 132.47 169.74 131.91 147.99 144.68 144.68 C 157.44 141.37 165.28 135.12 177.23 131.23 C 189.18 127.34 199.32 122.31 211.00 118.00
M 300.00 199.00 
C 300.00 191.33 300.00 183.67 300.00 176.00
C 315.92 171.28 331.21 164.30 347.00 159.00
C 332.15 151.82 315.83 146.21 300.00 141.00
C 300.00 133.33 300.00 125.67 300.00 118.00
C 311.62 122.13 321.13 127.24 333.02 130.98 C 344.92 134.71 352.86 141.35 365.69 144.31 C 378.53 147.26 379.09 169.01 366.32 172.32 C 353.56 175.63 345.72 181.88 333.77 185.77 C 321.82 189.66 311.68 194.69 300.00 199.00
M 201.00 304.00 
C 202.11 288.81 204.08 273.51 202.00 258.00
C 209.25 256.69 228.64 255.93 226.00 268.00 C 223.35 280.07 230.19 284.97 227.07 297.07 C 223.96 309.17 209.32 302.04 201.00 304.00
M 280.00 305.00 
C 275.15 302.85 269.27 304.54 264.00 304.00
C 266.76 289.01 266.98 272.50 264.00 258.00
C 271.21 258.90 277.66 257.01 284.08 257.07 C 290.50 257.12 294.07 266.81 293.00 272.00 C 291.93 277.19 294.37 287.79 285.77 288.77 C 277.17 289.75 278.98 297.11 280.00 305.00
M 253.00 258.00 
C 255.01 273.67 258.36 289.00 263.00 304.00
C 256.46 303.79 245.46 308.20 248.00 297.00
C 242.79 295.37 240.09 300.52 241.00 305.00
C 237.00 305.00 233.00 305.00 229.00 305.00
C 230.40 288.93 237.94 274.46 238.00 258.00
C 243.00 258.00 248.00 258.00 253.00 258.00
M 308.00 259.00 
C 306.30 273.87 304.62 289.60 309.00 304.00
C 304.14 305.27 298.85 302.54 294.00 305.00
C 296.44 290.19 297.83 272.70 294.00 258.00
C 298.66 258.18 302.84 259.11 308.00 259.00
M 167.00 384.00 
C 168.11 368.81 170.08 353.51 168.00 338.00
C 175.25 336.69 194.64 335.93 192.00 348.00 C 189.35 360.07 196.19 364.97 193.07 377.07 C 189.96 389.17 175.32 382.04 167.00 384.00
M 236.00 344.00 
C 235.70 348.37 230.75 352.49 227.00 354.00
C 225.70 352.25 226.26 348.56 223.00 349.00
C 226.11 358.50 244.55 368.66 233.23 381.23 C 221.91 393.80 204.34 376.07 212.00 363.00
C 216.00 364.78 225.34 366.00 222.00 372.00
C 230.21 371.63 221.31 363.63 216.25 359.75 C 211.19 355.87 209.86 344.22 216.75 339.75 C 223.64 335.28 231.30 338.42 236.00 344.00
M 343.00 346.00 
C 340.41 348.71 337.35 351.48 334.00 354.00
C 332.12 352.93 332.43 349.62 330.00 349.00
C 330.65 356.82 339.59 359.30 341.98 368.02 C 344.37 376.75 337.33 387.36 327.00 385.00 C 316.67 382.64 315.31 370.81 319.00 363.00
C 323.36 365.41 332.01 365.96 329.00 373.00
C 336.88 364.65 314.04 359.56 318.33 347.33 C 322.62 335.10 336.81 334.62 343.00 346.00
M 210.00 339.00 
C 206.16 354.07 207.50 368.99 210.00 384.00
C 205.26 385.69 199.83 382.29 195.00 385.00
C 198.71 369.42 198.17 354.35 196.00 338.00
C 200.84 337.61 205.05 339.74 210.00 339.00
M 250.00 367.00 
C 250.54 366.72 251.35 365.92 252.00 366.00
C 254.25 360.41 251.50 354.43 252.00 349.00
C 256.33 349.00 260.67 349.00 265.00 349.00
C 265.65 354.83 263.68 361.99 266.00 367.00
C 267.52 358.48 269.44 347.36 267.00 338.00
C 272.00 338.00 277.00 338.00 282.00 338.00
C 277.92 353.13 277.17 369.14 272.00 384.00
C 267.34 383.02 257.09 387.17 259.00 379.00
C 258.90 384.52 244.28 387.61 243.03 380.97 C 241.77 374.33 241.13 366.93 240.00 360.00 C 238.88 353.06 237.81 345.13 237.00 338.00
C 241.67 338.00 246.33 338.00 251.00 338.00
C 248.70 347.69 250.06 356.90 250.00 367.00
M 317.00 384.00 
C 311.73 383.28 307.24 385.56 302.00 385.00
C 305.17 375.07 291.86 375.03 295.00 385.00
C 291.00 385.00 287.00 385.00 283.00 385.00
C 283.99 368.83 291.82 354.42 292.00 338.00
C 300.09 336.40 307.25 337.77 307.33 345.67 C 307.41 353.57 311.92 357.62 311.98 365.02 C 312.03 372.43 315.25 377.22 317.00 384.00 Z"/>
</g>
<g fill="#FFFFFF" fill-opacity="0.95" stroke="None">
<path d="
M 288.00 89.00 
C 280.33 89.00 272.67 89.00 265.00 89.00
C 250.43 137.81 234.77 186.28 220.00 235.00
C 227.67 235.00 235.33 235.00 243.00 235.00
C 257.63 186.21 273.55 137.82 288.00 89.00 Z"/>
</g>
<g fill="#FFFFFF" fill-opacity="0.95" stroke="None">
<path d="
M 211.00 118.00 
C 199.32 122.31 189.18 127.34 177.23 131.23 C 165.28 135.12 157.44 141.37 144.68 144.68 C 131.91 147.99 132.47 169.74 145.31 172.69 C 158.14 175.65 166.08 182.29 177.98 186.02 C 189.87 189.76 199.38 194.87 211.00 199.00
C 211.00 191.33 211.00 183.67 211.00 176.00
C 195.17 170.79 178.85 165.18 164.00 158.00
C 179.84 152.86 194.99 145.45 211.00 141.00
C 211.00 133.33 211.00 125.67 211.00 118.00 Z"/>
</g>
<g fill="#FFFFFF" fill-opacity="0.95" stroke="None">
<path d="
M 300.00 199.00 
C 311.68 194.69 321.82 189.66 333.77 185.77 C 345.72 181.88 353.56 175.63 366.32 172.32 C 379.09 169.01 378.53 147.26 365.69 144.31 C 352.86 141.35 344.92 134.71 333.02 130.98 C 321.13 127.24 311.62 122.13 300.00 118.00
C 300.00 125.67 300.00 133.33 300.00 141.00
C 315.83 146.21 332.15 151.82 347.00 159.00
C 331.21 164.30 315.92 171.28 300.00 176.00
C 300.00 183.67 300.00 191.33 300.00 199.00 Z"/>
</g>
<g fill="#FFFFFF" fill-opacity="0.87" stroke="None">
<path d="
M 201.00 304.00 
C 209.32 302.04 223.96 309.17 227.07 297.07 C 230.19 284.97 223.35 280.07 226.00 268.00 C 228.64 255.93 209.25 256.69 202.00 258.00
C 204.08 273.51 202.11 288.81 201.00 304.00
M 213.00 274.00 
C 207.59 264.60 221.22 267.73 213.00 274.00
M 217.00 280.00 
C 214.11 282.88 212.78 279.59 211.00 279.00
C 213.89 276.12 215.22 279.41 217.00 280.00
M 213.00 294.00 
C 207.74 284.59 221.08 287.76 213.00 294.00 Z"/>
</g>
<g fill="#FFFFFF" fill-opacity="0.84" stroke="None">
<path d="
M 280.00 305.00 
C 278.98 297.11 277.17 289.75 285.77 288.77 C 294.37 287.79 291.93 277.19 293.00 272.00 C 294.07 266.81 290.50 257.12 284.08 257.07 C 277.66 257.01 271.21 258.90 264.00 258.00
C 266.98 272.50 266.76 289.01 264.00 304.00
C 269.27 304.54 275.15 302.85 280.00 305.00
M 277.00 279.00 
C 277.00 275.00 277.00 271.00 277.00 267.00
C 284.23 266.11 283.67 279.36 277.00 279.00
M 280.00 285.00 
C 275.22 287.54 278.80 283.63 274.00 283.00
C 276.60 282.66 278.65 282.95 280.00 285.00 Z"/>
</g>
<g fill="#FFFFFF" fill-opacity="0.89" stroke="None">
<path d="
M 253.00 258.00 
C 248.00 258.00 243.00 258.00 238.00 258.00
C 237.94 274.46 230.40 288.93 229.00 305.00
C 233.00 305.00 237.00 305.00 241.00 305.00
C 240.09 300.52 242.79 295.37 248.00 297.00
C 245.46 308.20 256.46 303.79 263.00 304.00
C 258.36 289.00 255.01 273.67 253.00 258.00
M 243.00 287.00 
C 244.25 283.84 244.76 280.45 245.00 277.00
C 245.66 279.88 249.54 288.49 243.00 287.00 Z"/>
</g>
<g fill="#FFFFFF" fill-opacity="0.85" stroke="None">
<path d="
M 308.00 259.00 
C 302.84 259.11 298.66 258.18 294.00 258.00
C 297.83 272.70 296.44 290.19 294.00 305.00
C 298.85 302.54 304.14 305.27 309.00 304.00
C 304.62 289.60 306.30 273.87 308.00 259.00 Z"/>
</g>
<g fill="#000000" fill-opacity="0.00" stroke="None">
<path d="
M 213.00 274.00 
C 221.22 267.73 207.59 264.60 213.00 274.00 Z"/>
</g>
<g fill="#000000" fill-opacity="0.00" stroke="None">
<path d="
M 277.00 279.00 
C 283.67 279.36 284.23 266.11 277.00 267.00
C 277.00 271.00 277.00 275.00 277.00 279.00 Z"/>
</g>
<g fill="#000000" fill-opacity="0.00" stroke="None">
<path d="
M 243.00 287.00 
C 249.54 288.49 245.66 279.88 245.00 277.00
C 244.76 280.45 244.25 283.84 243.00 287.00 Z"/>
</g>
<g fill="#FFFFFF" fill-opacity="0.69" stroke="None">
<path d="
M 217.00 280.00 
C 215.22 279.41 213.89 276.12 211.00 279.00
C 212.78 279.59 214.11 282.88 217.00 280.00 Z"/>
</g>
<g fill="#FFFFFF" fill-opacity="0.60" stroke="None">
<path d="
M 280.00 285.00 
C 278.65 282.95 276.60 282.66 274.00 283.00
C 278.80 283.63 275.22 287.54 280.00 285.00 Z"/>
</g>
<g fill="#000000" fill-opacity="0.00" stroke="None">
<path d="
M 213.00 294.00 
C 221.08 287.76 207.74 284.59 213.00 294.00 Z"/>
</g>
<g fill="#FFFFFF" fill-opacity="0.87" stroke="None">
<path d="
M 167.00 384.00 
C 175.32 382.04 189.96 389.17 193.07 377.07 C 196.19 364.97 189.35 360.07 192.00 348.00 C 194.64 335.93 175.25 336.69 168.00 338.00
C 170.08 353.51 168.11 368.81 167.00 384.00
M 179.00 354.00 
C 173.59 344.60 187.22 347.74 179.00 354.00
M 183.00 360.00 
C 180.11 362.88 178.78 359.59 177.00 359.00
C 179.89 356.12 181.22 359.41 183.00 360.00
M 179.00 374.00 
C 173.74 364.59 187.08 367.76 179.00 374.00 Z"/>
</g>
<g fill="#FFFFFF" fill-opacity="0.84" stroke="None">
<path d="
M 236.00 344.00 
C 231.30 338.42 223.64 335.28 216.75 339.75 C 209.86 344.22 211.19 355.87 216.25 359.75 C 221.31 363.63 230.21 371.63 222.00 372.00
C 225.34 366.00 216.00 364.78 212.00 363.00
C 204.34 376.07 221.91 393.80 233.23 381.23 C 244.55 368.66 226.11 358.50 223.00 349.00
C 226.26 348.56 225.70 352.25 227.00 354.00
C 230.75 352.49 235.70 348.37 236.00 344.00 Z"/>
</g>
<g fill="#FFFFFF" fill-opacity="0.83" stroke="None">
<path d="
M 343.00 346.00 
C 336.81 334.62 322.62 335.10 318.33 347.33 C 314.04 359.56 336.88 364.65 329.00 373.00
C 332.01 365.96 323.36 365.41 319.00 363.00
C 315.31 370.81 316.67 382.64 327.00 385.00 C 337.33 387.36 344.37 376.75 341.98 368.02 C 339.59 359.30 330.65 356.82 330.00 349.00
C 332.43 349.62 332.12 352.93 334.00 354.00
C 337.35 351.48 340.41 348.71 343.00 346.00 Z"/>
</g>
<g fill="#FFFFFF" fill-opacity="0.84" stroke="None">
<path d="
M 210.00 339.00 
C 205.05 339.74 200.84 337.61 196.00 338.00
C 198.17 354.35 198.71 369.42 195.00 385.00
C 199.83 382.29 205.26 385.69 210.00 384.00
C 207.50 368.99 206.16 354.07 210.00 339.00 Z"/>
</g>
<g fill="#FFFFFF" fill-opacity="0.79" stroke="None">
<path d="
M 252.00 366.00 
C 252.92 366.12 254.04 369.03 256.00 367.00
C 255.25 370.72 252.03 369.02 249.00 370.00
C 251.40 368.31 246.07 367.14 250.00 367.00
C 250.06 356.90 248.70 347.69 251.00 338.00
C 246.33 338.00 241.67 338.00 237.00 338.00
C 237.81 345.13 238.88 353.06 240.00 360.00 C 241.13 366.93 241.77 374.33 243.03 380.97 C 244.28 387.61 258.90 384.52 259.00 379.00
C 257.09 387.17 267.34 383.02 272.00 384.00
C 277.17 369.14 277.92 353.13 282.00 338.00
C 277.00 338.00 272.00 338.00 267.00 338.00
C 269.44 347.36 267.52 358.48 266.00 367.00
C 263.68 361.99 265.65 354.83 265.00 349.00
C 260.67 349.00 256.33 349.00 252.00 349.00
C 251.50 354.43 254.25 360.41 252.00 366.00 Z"/>
</g>
<g fill="#FFFFFF" fill-opacity="0.89" stroke="None">
<path d="
M 317.00 384.00 
C 315.25 377.22 312.03 372.43 311.98 365.02 C 311.92 357.62 307.41 353.57 307.33 345.67 C 307.25 337.77 300.09 336.40 292.00 338.00
C 291.82 354.42 283.99 368.83 283.00 385.00
C 287.00 385.00 291.00 385.00 295.00 385.00
C 291.86 375.03 305.17 375.07 302.00 385.00
C 307.24 385.56 311.73 383.28 317.00 384.00
M 301.00 367.00 
C 294.13 368.35 299.41 360.61 299.00 357.00
C 301.45 359.45 298.63 364.20 301.00 367.00 Z"/>
</g>
<g fill="#000000" fill-opacity="0.00" stroke="None">
<path d="
M 179.00 354.00 
C 187.22 347.74 173.59 344.60 179.00 354.00 Z"/>
</g>
<g fill="#000000" fill-opacity="0.00" stroke="None">
<path d="
M 301.00 367.00 
C 298.63 364.20 301.45 359.45 299.00 357.00
C 299.41 360.61 294.13 368.35 301.00 367.00 Z"/>
</g>
<g fill="#FFFFFF" fill-opacity="0.69" stroke="None">
<path d="
M 183.00 360.00 
C 181.22 359.41 179.89 356.12 177.00 359.00
C 178.78 359.59 180.11 362.88 183.00 360.00 Z"/>
</g>
<g fill="#FFFFFF" fill-opacity="0.48" stroke="None">
<path d="
M 250.00 367.00 
C 246.07 367.14 251.40 368.31 249.00 370.00
C 252.03 369.02 255.25 370.72 256.00 367.00
C 254.04 369.03 252.92 366.12 252.00 366.00
C 251.35 365.92 250.54 366.72 250.00 367.00 Z"/>
</g>
<g fill="#000000" fill-opacity="0.00" stroke="None">
<path d="
M 179.00 374.00 
C 187.08 367.76 173.74 364.59 179.00 374.00 Z"/>
</g>
</svg>